<svg width="13" height="12" viewBox="0 0 13 12" fill="none" xmlns="http://www.w3.org/2000/svg">
<path d="M12.8845 1.7295L6.38112 11.1162L6.15531 11.4427C5.94866 11.7432 5.62216 11.9413 5.25851 11.9869C5.20289 11.9944 5.14688 11.9987 5.09076 11.9998C4.7833 11.9993 4.486 11.8904 4.25203 11.6924L0.226124 8.26686C0.0959198 8.15658 0.0152676 7.99943 0.00195398 7.83007C-0.0113597 7.6607 0.0437596 7.49304 0.155155 7.36405L0.993886 6.39081C1.10501 6.26159 1.26336 6.18155 1.43402 6.16834C1.60467 6.15513 1.77362 6.20983 1.90359 6.32038L4.83915 8.81751L6.38112 6.5957L10.7554 0.276037C10.9586 -0.0128031 11.3575 -0.0868527 11.6522 0.109562L12.7168 0.83309C12.8595 0.929284 12.9576 1.07817 12.9891 1.24655C13.0206 1.41494 12.983 1.58884 12.8845 1.7295Z" fill="white"/>
</svg>
