<svg width="15" height="15" viewBox="0 0 15 15" fill="none" xmlns="http://www.w3.org/2000/svg">
<path d="M11.2336 9.70997C10.9688 9.55475 10.6434 9.55802 10.3799 9.71454L9.04559 10.5095C8.7469 10.6876 8.37386 10.6667 8.09995 10.4528C7.62647 10.083 6.86408 9.46084 6.20083 8.79759C5.53757 8.13433 4.9154 7.37194 4.54562 6.89847C4.33171 6.62456 4.31084 6.25152 4.48888 5.95283L5.28388 4.61849C5.44105 4.35501 5.44236 4.02697 5.28714 3.76219L3.32933 0.417866C3.13955 0.0943904 2.76259 -0.0647388 2.39803 0.0246083C2.0439 0.110695 1.58412 0.320693 1.10217 0.803298C-0.406948 2.31242 -1.20846 4.85783 4.46671 10.533C10.1419 16.2082 12.6866 15.4073 14.1964 13.8975C14.6797 13.4143 14.889 12.9539 14.9758 12.5991C15.0638 12.2352 14.9073 11.8608 14.5845 11.6717C13.7784 11.2002 12.0397 10.1821 11.2336 9.70997Z" fill="#1fba0a"/>
</svg>
